<svg id="Icon_ionic-ios-settings" data-name="Icon ionic-ios-settings" xmlns="http://www.w3.org/2000/svg" width="17.23" height="17.234" viewBox="0 0 17.23 17.234">
  <path id="Icon_ionic-ios-settings-2" data-name="Icon ionic-ios-settings" d="M20.307,13.115a2.217,2.217,0,0,1,1.422-2.068,8.788,8.788,0,0,0-1.063-2.562,2.247,2.247,0,0,1-.9.193,2.212,2.212,0,0,1-2.024-3.114A8.762,8.762,0,0,0,15.183,4.5a2.215,2.215,0,0,1-4.137,0A8.788,8.788,0,0,0,8.484,5.563,2.212,2.212,0,0,1,6.461,8.677a2.174,2.174,0,0,1-.9-.193A8.982,8.982,0,0,0,4.5,11.051a2.216,2.216,0,0,1,0,4.137A8.788,8.788,0,0,0,5.568,17.75a2.213,2.213,0,0,1,2.921,2.921,8.839,8.839,0,0,0,2.562,1.063,2.211,2.211,0,0,1,4.128,0,8.788,8.788,0,0,0,2.562-1.063,2.215,2.215,0,0,1,2.921-2.921,8.839,8.839,0,0,0,1.063-2.562A2.228,2.228,0,0,1,20.307,13.115ZM13.155,16.7a3.589,3.589,0,1,1,3.589-3.589A3.589,3.589,0,0,1,13.155,16.7Z" transform="translate(-4.5 -4.5)" fill="#748a96"/>
</svg>
