<svg xmlns="http://www.w3.org/2000/svg" width="15.5" height="17" viewBox="0 0 15.5 17">
  <g id="Icon_feather-share-2" data-name="Icon feather-share-2" transform="translate(1 1)">
    <path id="Path_859" data-name="Path 859" d="M27,5.25A2.25,2.25,0,1,1,24.75,3,2.25,2.25,0,0,1,27,5.25Z" transform="translate(-13.5 -3)" fill="none" stroke="#748a96" stroke-linecap="round" stroke-linejoin="round" stroke-width="2"/>
    <path id="Path_860" data-name="Path 860" d="M9,15.75A2.25,2.25,0,1,1,6.75,13.5,2.25,2.25,0,0,1,9,15.75Z" transform="translate(-4.5 -8.25)" fill="none" stroke="#748a96" stroke-linecap="round" stroke-linejoin="round" stroke-width="2"/>
    <path id="Path_861" data-name="Path 861" d="M27,26.25A2.25,2.25,0,1,1,24.75,24,2.25,2.25,0,0,1,27,26.25Z" transform="translate(-13.5 -13.5)" fill="none" stroke="#748a96" stroke-linecap="round" stroke-linejoin="round" stroke-width="2"/>
    <path id="Path_862" data-name="Path 862" d="M12.885,20.265l5.122,2.985" transform="translate(-8.693 -11.632)" fill="none" stroke="#748a96" stroke-linecap="round" stroke-linejoin="round" stroke-width="2"/>
    <path id="Path_863" data-name="Path 863" d="M18,9.765,12.885,12.75" transform="translate(-8.693 -6.382)" fill="none" stroke="#748a96" stroke-linecap="round" stroke-linejoin="round" stroke-width="2"/>
  </g>
</svg>
