<svg xmlns="http://www.w3.org/2000/svg" width="46" height="46" viewBox="0 0 46 46">
  <g id="Group_904" data-name="Group 904" transform="translate(-58)">
    <g id="Group_778" data-name="Group 778" transform="translate(58)" style="mix-blend-mode: multiply;isolation: isolate">
      <rect id="Rectangle_467" data-name="Rectangle 467" width="46" height="46" rx="23" fill="#181e82" style="mix-blend-mode: multiply;isolation: isolate"/>
    </g>
    <path id="Icon_metro-magic-wand" data-name="Icon metro-magic-wand" d="M8.7,6.528,5.638,3.461H4.1V4.995L7.171,8.062Zm1.533-4.6h1.533V4.995H10.238ZM16.371,9.6h3.067v1.533H16.371Zm1.533-4.6V3.461H16.371L13.3,6.528l1.533,1.533ZM2.571,9.6H5.638v1.533H2.571Zm7.667,6.134h1.533V18.8H10.238Zm-6.134,0v1.533H5.638L8.7,14.2,7.171,12.662ZM26.77,23.06,11.529,7.819a1.153,1.153,0,0,0-1.626,0L8.462,9.26a1.153,1.153,0,0,0,0,1.626L23.7,26.127a1.153,1.153,0,0,0,1.626,0l1.44-1.44A1.153,1.153,0,0,0,26.77,23.06Zm-12.7-8.1-4.6-4.6L11,8.828l4.6,4.6Z" transform="translate(65.948 9.071)" fill="#fff"/>
  </g>
</svg>
