<svg xmlns="http://www.w3.org/2000/svg" width="20" height="20" viewBox="0 0 20 20">
  <path id="Icon_awesome-certificate" data-name="Icon awesome-certificate" d="M17.915,10l1.8-1.758a.931.931,0,0,0-.417-1.576l-2.447-.625.69-2.422a.946.946,0,0,0-1.159-1.159l-2.422.69L13.333.7A.937.937,0,0,0,11.757.282L10,2.093,8.243.282A.937.937,0,0,0,6.667.7L6.043,3.147l-2.422-.69A.946.946,0,0,0,2.463,3.616l.69,2.422L.705,6.663A.931.931,0,0,0,.289,8.239L2.085,10l-1.8,1.758a.931.931,0,0,0,.417,1.576l2.447.625-.69,2.422a.946.946,0,0,0,1.159,1.159l2.422-.69.624,2.448a.929.929,0,0,0,1.575.417L10,17.914l1.757,1.8a.933.933,0,0,0,1.575-.417l.624-2.448,2.422.69a.946.946,0,0,0,1.159-1.159l-.69-2.422,2.447-.625a.931.931,0,0,0,.417-1.576L17.915,10Z" transform="translate(0 0)" fill="#748a96"/>
</svg>
