<svg xmlns="http://www.w3.org/2000/svg" width="18.154" height="20.748" viewBox="0 0 18.154 20.748">
  <path id="Icon_awesome-birthday-cake" data-name="Icon awesome-birthday-cake" d="M18.154,15.561c-1.135,0-1.267-1.3-3.019-1.3s-1.9,1.3-3.029,1.3-1.275-1.3-3.029-1.3c-1.736,0-1.913,1.3-3.019,1.3-1.141,0-1.264-1.3-3.029-1.3s-1.891,1.3-3.029,1.3V12.319a1.946,1.946,0,0,1,1.945-1.945h.648V4.539H5.187v5.835H7.78V4.539h2.593v5.835h2.593V4.539h2.593v5.835h.648a1.946,1.946,0,0,1,1.945,1.945Zm0,5.187H0v-3.89c1.757,0,1.9-1.3,3.029-1.3s1.266,1.3,3.029,1.3c1.736,0,1.913-1.3,3.019-1.3,1.141,0,1.264,1.3,3.029,1.3s1.9-1.3,3.029-1.3c1.114,0,1.266,1.3,3.019,1.3ZM3.89,3.89a1.293,1.293,0,0,1-1.3-1.3c0-1.256,1.3-.932,1.3-2.593.486,0,1.3,1.2,1.3,2.269S4.609,3.89,3.89,3.89Zm5.187,0a1.293,1.293,0,0,1-1.3-1.3c0-1.256,1.3-.932,1.3-2.593.486,0,1.3,1.2,1.3,2.269S9.8,3.89,9.077,3.89Zm5.187,0a1.293,1.293,0,0,1-1.3-1.3c0-1.256,1.3-.932,1.3-2.593.486,0,1.3,1.2,1.3,2.269S14.983,3.89,14.264,3.89Z" fill="#748a96"/>
</svg>
