<svg id="Icon_ionic-ios-eye" data-name="Icon ionic-ios-eye" xmlns="http://www.w3.org/2000/svg" width="18.136" height="11.658" viewBox="0 0 18.136 11.658">
  <path id="Path_857" data-name="Path 857" d="M11.31,7.875c-3.255,0-5.821,2.048-8.889,5.4a.64.64,0,0,0,0,.862c2.627,2.9,4.943,5.4,8.893,5.4,3.9,0,6.829-3.145,8.909-5.424a.635.635,0,0,0,.02-.838C18.119,10.7,15.184,7.875,11.31,7.875Zm.178,9.468a3.643,3.643,0,1,1,3.469-3.469A3.645,3.645,0,0,1,11.488,17.343Z" transform="translate(-2.252 -7.875)" fill="#fff"/>
  <path id="Path_858" data-name="Path 858" d="M16.091,14.188a1.9,1.9,0,0,1,.125-.684c-.04,0-.081,0-.125,0a2.59,2.59,0,1,0,2.591,2.591c0-.053,0-.105,0-.158a1.8,1.8,0,0,1-.737.158A1.879,1.879,0,0,1,16.091,14.188Z" transform="translate(-7.025 -10.262)" fill="#fff"/>
</svg>
