<svg id="united-kingdom" xmlns="http://www.w3.org/2000/svg" width="24.68" height="24.68" viewBox="0 0 24.68 24.68">
  <g id="Group_712" data-name="Group 712" transform="translate(0.406 0.494)">
    <path id="Path_878" data-name="Path 878" d="M9.561,102.641a12.287,12.287,0,0,0-1.767,3.846h5.613Z" transform="translate(-7.794 -97.787)" fill="#29337a"/>
    <path id="Path_879" data-name="Path 879" d="M99.6,9.48a12.3,12.3,0,0,0-3.9,1.937l3.9,3.9Z" transform="translate(-91.117 -9.48)" fill="#29337a"/>
    <path id="Path_880" data-name="Path 880" d="M101.261,365.351a12.277,12.277,0,0,0,3.608,1.73v-5.338Z" transform="translate(-96.391 -343.389)" fill="#29337a"/>
    <path id="Path_881" data-name="Path 881" d="M10.512,306.771a12.293,12.293,0,0,0,1.832,3.638l3.638-3.638Z" transform="translate(-10.37 -291.281)" fill="#29337a"/>
  </g>
  <g id="Group_713" data-name="Group 713" transform="translate(0.18 0.235)">
    <path id="Path_882" data-name="Path 882" d="M5.645,97.144q-.1.141-.2.287l3.846,3.846H3.674c-.091.346-.165.7-.226,1.057h7.387Z" transform="translate(-3.448 -92.317)" fill="#fff"/>
    <path id="Path_883" data-name="Path 883" d="M95.767,337c.094.07.19.137.286.2l3.608-3.608v5.338c.347.1.7.189,1.057.259V332.05Z" transform="translate(-90.957 -314.984)" fill="#fff"/>
    <path id="Path_884" data-name="Path 884" d="M5.25,286.487c.077.358.167.711.274,1.057h5.471l-3.638,3.638A12.422,12.422,0,0,0,8.668,292.7l6.213-6.213Z" transform="translate(-5.156 -271.795)" fill="#fff"/>
    <path id="Path_885" data-name="Path 885" d="M72.211,4.765V10.6l-3.9-3.9a12.41,12.41,0,0,0-1.505,1.324l6.46,6.46V4.506C72.91,4.577,72.558,4.664,72.211,4.765Z" transform="translate(-63.507 -4.506)" fill="#fff"/>
  </g>
  <g id="Group_714" data-name="Group 714" transform="translate(8.847 9.157)">
    <path id="Path_886" data-name="Path 886" d="M169.837,306.056l-.037.037h.037Z" transform="translate(-169.8 -299.267)" fill="#d32030"/>
    <path id="Path_887" data-name="Path 887" d="M190.084,285.81h.037v-.037Z" transform="translate(-189.027 -280.041)" fill="#d32030"/>
    <path id="Path_888" data-name="Path 888" d="M280.581,196.737h-.036v.036Z" transform="translate(-274.775 -195.644)" fill="#d32030"/>
    <path id="Path_889" data-name="Path 889" d="M170.547,175.791l-.036-.037v.037Z" transform="translate(-170.474 -175.754)" fill="#d32030"/>
    <path id="Path_890" data-name="Path 890" d="M190.794,196.037v.036h.036Z" transform="translate(-189.7 -194.98)" fill="#d32030"/>
  </g>
  <g id="Group_715" data-name="Group 715" transform="translate(15.674 0.459)">
    <path id="Path_891" data-name="Path 891" d="M300.825,376.377v2.766a12.269,12.269,0,0,0,3.658-1.714l-3-3A9.714,9.714,0,0,1,300.825,376.377Z" transform="translate(-300.825 -355.383)" fill="#252f6c"/>
    <path id="Path_892" data-name="Path 892" d="M301.5,14.01l3.272-3.272a12.293,12.293,0,0,0-3.949-1.92V11.66A10.938,10.938,0,0,1,301.5,14.01Z" transform="translate(-300.824 -8.818)" fill="#252f6c"/>
    <path id="Path_893" data-name="Path 893" d="M359.526,310.481a12.305,12.305,0,0,0,1.883-3.71h-5.594Z" transform="translate(-352.951 -291.247)" fill="#252f6c"/>
    <path id="Path_894" data-name="Path 894" d="M361.525,105.183a12.282,12.282,0,0,0-1.818-3.918l-3.918,3.918Z" transform="translate(-352.925 -96.448)" fill="#252f6c"/>
  </g>
  <g id="Group_716" data-name="Group 716" transform="translate(14.617 0.213)">
    <path id="Path_895" data-name="Path 895" d="M327.638,286.7l.848.848,4.059,4.059c.092-.115.184-.23.272-.349l-3.71-3.71H334.7q.16-.519.274-1.057h-7.256C327.705,286.641,327.652,286.551,327.638,286.7Z" transform="translate(-325.184 -271.777)" fill="#e7e7e7"/>
    <path id="Path_896" data-name="Path 896" d="M311.288,49.563l3.679-3.679c-.092-.071-.185-.143-.279-.212l-3.272,3.272C311.451,49.073,311.257,49.43,311.288,49.563Z" transform="translate(-309.683 -43.505)" fill="#e7e7e7"/>
    <path id="Path_897" data-name="Path 897" d="M281.6,6.948V4.333q-.519-.146-1.057-.246V5.362A6.827,6.827,0,0,1,281.6,6.948Z" transform="translate(-280.541 -4.087)" fill="#e7e7e7"/>
    <path id="Path_898" data-name="Path 898" d="M321.933,78.087h7.513c-.061-.358-.135-.71-.226-1.057h-5.736l3.918-3.918a12.4,12.4,0,0,0-1.281-1.547l-4.413,4.413C321.826,76.778,321.879,77.243,321.933,78.087Z" transform="translate(-319.562 -68.049)" fill="#e7e7e7"/>
    <path id="Path_899" data-name="Path 899" d="M310.088,330.8l3.176,3.176a12.381,12.381,0,0,0,1.49-1.208l-4.177-4.177A21.444,21.444,0,0,1,310.088,330.8Z" transform="translate(-308.549 -311.687)" fill="#e7e7e7"/>
    <path id="Path_900" data-name="Path 900" d="M280.545,413.354v1.421q.537-.1,1.057-.246v-2.766A6.863,6.863,0,0,1,280.545,413.354Z" transform="translate(-280.545 -390.522)" fill="#e7e7e7"/>
  </g>
  <path id="Path_901" data-name="Path 901" d="M315.733,55.283l4.413-4.413a12.338,12.338,0,0,0-1.274-1.138L315.405,53.2C315.559,53.845,315.629,54.582,315.733,55.283Z" transform="translate(-298.972 -47.142)" fill="#d71f28"/>
  <g id="Group_717" data-name="Group 717" transform="translate(11.724)">
    <path id="Path_902" data-name="Path 902" d="M225.019.015q.308-.015.616-.015Q225.325,0,225.019.015Z" transform="translate(-225.019 0)" fill="#d32030"/>
    <path id="Path_903" data-name="Path 903" d="M225.641,473.4c-.205,0-.41-.006-.615-.016Q225.332,473.4,225.641,473.4Z" transform="translate(-225.026 -448.717)" fill="#d32030"/>
    <path id="Path_904" data-name="Path 904" d="M236.836,443.936a12.365,12.365,0,0,0,2.277-.214V442.3C238.465,443,237.707,443.936,236.836,443.936Z" transform="translate(-236.22 -419.256)" fill="#d32030"/>
  </g>
  <g id="Group_718" data-name="Group 718" transform="translate(16.645 10.251)">
    <path id="Path_905" data-name="Path 905" d="M334.681,196.737h-7.415a33.164,33.164,0,0,1-.035,4.676h7.357a12.311,12.311,0,0,0,.094-4.676Z" transform="translate(-326.825 -196.737)" fill="#d71f28"/>
    <path id="Path_906" data-name="Path 906" d="M319.882,290.5c-.069.729-.307,1.3-.426,1.985l4.177,4.177a12.456,12.456,0,0,0,1.156-1.255l-4.059-4.059Z" transform="translate(-319.456 -285.615)" fill="#d71f28"/>
  </g>
  <path id="Path_907" data-name="Path 907" d="M239.113,1.58V.213A12.4,12.4,0,0,0,236.836,0C237.707,0,238.465.878,239.113,1.58Z" transform="translate(-224.496)" fill="#d32030"/>
  <g id="Group_719" data-name="Group 719" transform="translate(15.674 2.693)">
    <path id="Path_908" data-name="Path 908" d="M300.825,364.891a13.291,13.291,0,0,0,.86-2.28l-.86-.86Z" transform="translate(-300.825 -345.595)" fill="#29337a"/>
    <path id="Path_909" data-name="Path 909" d="M301.792,54.346a13.881,13.881,0,0,0-.967-2.669v3.635Z" transform="translate(-300.825 -51.677)" fill="#29337a"/>
  </g>
  <g id="Group_720" data-name="Group 720" transform="translate(14.617 1.107)">
    <path id="Path_910" data-name="Path 910" d="M324.077,286.935q.021-.223.039-.448h-.487Z" transform="translate(-321.384 -272.667)" fill="#fff"/>
    <path id="Path_911" data-name="Path 911" d="M281.6,26.466V22.83a6.826,6.826,0,0,0-1.057-1.585v6.768l2.122-2.122c-.032-.132-.065-.262-.1-.392Z" transform="translate(-280.541 -21.245)" fill="#fff"/>
    <path id="Path_912" data-name="Path 912" d="M281.229,151.729h2.732c-.054-.844-.139-1.674-.258-2.474Z" transform="translate(-281.193 -142.585)" fill="#fff"/>
    <path id="Path_913" data-name="Path 913" d="M280.545,298.161a6.833,6.833,0,0,0,1.057-1.585v-3.139l.86.86a21.285,21.285,0,0,0,.5-2.2l-2.413-2.413v8.48Z" transform="translate(-280.545 -275.695)" fill="#fff"/>
  </g>
  <path id="Path_914" data-name="Path 914" d="M14.617,23.573v-8.48l2.413,2.413c.119-.688.212-1.4.28-2.131l-.448-.448h.487a33.175,33.175,0,0,0,.035-4.676H14.653l2.474-2.474c-.1-.7-.233-1.379-.387-2.023L14.617,7.876V1.107A3.065,3.065,0,0,0,12.34,0q-.308,0-.616.015a12.422,12.422,0,0,0-1.783.22v9.979l-6.46-6.46a12.46,12.46,0,0,0-1.1,1.307L6.509,9.194l1.057,1.057H.18a12.31,12.31,0,0,0,.094,4.676H9.9L3.691,21.139a12.428,12.428,0,0,0,1.3,1.112L9.941,17.3v7.144a12.434,12.434,0,0,0,1.784.22c.205.01.41.016.615.016A3.065,3.065,0,0,0,14.617,23.573Z" fill="#e51d35"/>
</svg>
