<svg id="Component_341_1" data-name="Component 341 – 1" xmlns="http://www.w3.org/2000/svg" width="28.586" height="20.52" viewBox="0 0 28.586 20.52">
  <path id="Path_952" data-name="Path 952" d="M7.4,7a3.4,3.4,0,1,0,3.4,3.4A3.4,3.4,0,0,0,7.4,7ZM6.269,10.4A1.134,1.134,0,1,1,7.4,11.538,1.134,1.134,0,0,1,6.269,10.4Z" transform="translate(0.856 -2.024)" fill="#748a96" fill-rule="evenodd"/>
  <path id="Path_953" data-name="Path 953" d="M3.573,3A3.5,3.5,0,0,0,0,6.42V20.1a3.5,3.5,0,0,0,3.573,3.42h21.44a3.5,3.5,0,0,0,3.573-3.42V6.42A3.5,3.5,0,0,0,25.013,3Zm21.44,2.28H3.573A1.166,1.166,0,0,0,2.382,6.42V20.1a1.166,1.166,0,0,0,1.191,1.14H8.711L16.9,13.4a3.687,3.687,0,0,1,5.053,0L26.2,17.462V6.42A1.166,1.166,0,0,0,25.013,5.28Zm0,15.96H12.08l6.509-6.229a1.229,1.229,0,0,1,1.684,0l5.82,5.57A1.2,1.2,0,0,1,25.013,21.24Z" transform="translate(0 -3)"  fill-rule="evenodd"/>
</svg>
