<svg xmlns="http://www.w3.org/2000/svg" width="60" height="60" viewBox="0 0 60 60">
  <g id="Group_816" data-name="Group 816" transform="translate(-1123 -1409)">
    <rect id="Rectangle_619" data-name="Rectangle 619" width="60" height="60" rx="2" transform="translate(1123 1409)" fill="#748a96" opacity="0.5" style="mix-blend-mode: multiply;isolation: isolate"/>
    <g id="Icon_open-fullscreen-enter" data-name="Icon open-fullscreen-enter" transform="translate(1141 1427)">
      <g id="Icon_open-fullscreen-enter-2" data-name="Icon open-fullscreen-enter" fill="#fff" stroke-linejoin="round">
        <path d="M 25.5 25.5 L 25 25.5 L 12.5 25.5 L 11.29288959503174 25.5 L 12.14645004272461 24.64645004272461 L 16.48040008544922 20.3125 L 12.14645004272461 15.97854995727539 L 11.79288959503174 15.625 L 12.14645004272461 15.27145004272461 L 15.27145004272461 12.14645004272461 L 15.625 11.79288959503174 L 15.97854995727539 12.14645004272461 L 20.3125 16.48040008544922 L 24.64645004272461 12.14645004272461 L 25.5 11.29288959503174 L 25.5 12.5 L 25.5 25 L 25.5 25.5 Z M -0.5 13.70711040496826 L -0.5 12.5 L -0.5 -1.77635683940025e-15 L -0.5 -0.5 L -1.77635683940025e-15 -0.5 L 12.5 -0.5 L 13.70711040496826 -0.5 L 12.85354995727539 0.353549987077713 L 8.519599914550781 4.6875 L 12.85354995727539 9.021450042724609 L 13.20711040496826 9.375 L 12.85354995727539 9.728549957275391 L 9.728549957275391 12.85354995727539 L 9.375 13.20711040496826 L 9.021450042724609 12.85354995727539 L 4.6875 8.519599914550781 L 0.353549987077713 12.85354995727539 L -0.5 13.70711040496826 Z" stroke="none"/>
        <path d="M 0 0 L 0 12.5 L 4.6875 7.8125 L 9.375 12.5 L 12.5 9.375 L 7.8125 4.6875 L 12.5 0 L 0 0 M 15.625 12.5 L 12.5 15.625 L 17.1875 20.3125 L 12.5 25 L 25 25 L 25 12.5 L 20.3125 17.1875 L 15.625 12.5 M 0 -1 L 12.5 -1 C 12.90445995330811 -1 13.26910018920898 -0.7563591003417969 13.42387962341309 -0.3826808929443359 C 13.5786600112915 -0.00901031494140625 13.4931001663208 0.4211101531982422 13.20711040496826 0.7071094512939453 L 9.226719856262207 4.6875 L 13.20711040496826 8.667890548706055 C 13.59762954711914 9.058420181274414 13.59762954711914 9.691579818725586 13.20711040496826 10.08211040496826 L 10.08211040496826 13.20711040496826 C 9.886844635009766 13.40237045288086 9.630922317504883 13.5 9.375 13.5 C 9.119077682495117 13.5 8.863155364990234 13.40237045288086 8.667890548706055 13.20711040496826 L 4.6875 9.226719856262207 L 0.7071094512939453 13.20711040496826 C 0.5158100128173828 13.39840412139893 0.2600154876708984 13.50002861022949 -0.0002231597900390625 13.50002861022949 C -0.1290473937988281 13.50002861022949 -0.2589511871337891 13.47513008117676 -0.3826808929443359 13.42387962341309 C -0.7563591003417969 13.26910018920898 -1 12.90445995330811 -1 12.5 L -1 0 C -1 -0.5522804260253906 -0.5522804260253906 -1 0 -1 Z M 25.00022315979004 11.49997138977051 C 25.12904739379883 11.49997043609619 25.25895118713379 11.52486991882324 25.38268089294434 11.57612037658691 C 25.7563591003418 11.73089981079102 26 12.09554004669189 26 12.5 L 26 25 C 26 25.55228042602539 25.55228042602539 26 25 26 L 12.5 26 C 12.09554004669189 26 11.73089981079102 25.7563591003418 11.57612037658691 25.38268089294434 C 11.4213399887085 25.00901031494141 11.5068998336792 24.57888984680176 11.79288959503174 24.29289054870605 L 15.77328014373779 20.3125 L 11.79288959503174 16.33211135864258 C 11.40237045288086 15.94157981872559 11.40237045288086 15.30842018127441 11.79288959503174 14.91788959503174 L 14.91788959503174 11.79288959503174 C 15.11315536499023 11.59762954711914 15.36907768249512 11.5 15.625 11.5 C 15.88092231750488 11.5 16.13684463500977 11.59762954711914 16.33211135864258 11.79288959503174 L 20.3125 15.77328014373779 L 24.29289054870605 11.79288959503174 C 24.48418998718262 11.60159587860107 24.7399845123291 11.49997520446777 25.00022315979004 11.49997138977051 Z" stroke="none" fill="#748a96"/>
      </g>
    </g>
  </g>
</svg>
