<svg xmlns="http://www.w3.org/2000/svg" width="753.567" height="643.607" viewBox="0 0 753.567 643.607">
  <g id="Group_903" data-name="Group 903" transform="translate(-533.368 -495.89)">
    <text id="create_your_first_presentation_now_" data-name="create your first presentation now!" transform="translate(733 574)" fill="#181e82" font-size="22" font-family="SegoeUI-Bold, Segoe UI" font-weight="700" letter-spacing="0.015em"><tspan x="0" y="0">CREATE YOUR FIRST PRESENTATION NOW!</tspan></text>
    <path id="Path_871" data-name="Path 871" d="M219,0s-29.572-33.247-69.429-28.662-52.608,39.835-90,47S0,0,0,0" transform="translate(534.5 526.5)" fill="none" stroke="#181e82" stroke-width="3" stroke-dasharray="10 8"/>
    <g id="Group_770" data-name="Group 770" transform="translate(578.649 676)">
      <ellipse id="Ellipse_26" data-name="Ellipse 26" cx="136.257" cy="6.952" rx="136.257" ry="6.952" transform="translate(0 449.593)" fill="#e6e6e6"/>
      <path id="Path_928" data-name="Path 928" d="M766.142,518.77,743.549,521.7l-1.151.149-30.07,3.9-137.256,17.8c-5.87-4.058-11.409-8.232-16.552-12.5l157.074-9.284,27.168-1.608,1.14-.066Z" transform="translate(-234.117 -237.718)" fill="#e6e6e6"/>
      <path id="Path_929" data-name="Path 929" d="M661.983,364.394,542.644,379.872q5.2-4.419,10.847-9.063Z" transform="translate(-229.623 -194.019)" fill="#e6e6e6"/>
      <path id="Path_930" data-name="Path 930" d="M1027.639,496.445q-3.378,5.575-7.268,10.914L916.682,493.912l-57.045-7.4,56.115,3.32Z" transform="translate(-319.353 -228.587)" fill="#e6e6e6"/>
      <path id="Path_931" data-name="Path 931" d="M912.7,539.954c-38.163,27.333-89.157,44.023-145.173,44.023-45.818,0-98.481-15.693-141.86-38.506,3.43-8.893,8.21-16.1,14.856-19.751.165-.094.336-.187.507-.27a21,21,0,0,1,9.163-2.318c39.1-1.1,34.69,42.949,83.7-17.62,30.478-37.669,65-50.631,88.6-46.44.435.077.865.16,1.294.248,13.678,2.841,23.462,11.6,26.287,24.718,7.709,35.791-14.867,64.424,26.43,55.614A85.414,85.414,0,0,1,912.7,539.954Z" transform="translate(-253.125 -220.606)" fill="#6c63ff"/>
      <path id="Path_932" data-name="Path 932" d="M849.766,526.409C830.56,515.7,818.6,501.085,814.229,482.963c-3.248-13.455-2.315-28.6,2.774-45A120.529,120.529,0,0,1,833.763,404.1c38.9-55.056,42.406-90.93,38.5-111.331-4.281-22.368-18.188-31.658-18.328-31.749l.6-.923c.144.093,14.418,9.6,18.8,32.421,2.527,13.157,1.338,28.16-3.534,44.591-6.063,20.449-17.887,43.2-35.142,67.627a119.436,119.436,0,0,0-16.609,33.546c-8.347,26.908-9.527,63.872,32.248,87.161Z" transform="translate(-305.963 -164.498)" fill="#3f3d56"/>
      <path id="Path_933" data-name="Path 933" d="M811.873,449.033c-15.141-8.44-14.72-21.817-11.7-31.552a42.777,42.777,0,0,1,5.949-12.018c13.626-19.288,14.858-31.817,13.491-38.932-1.484-7.726-6.245-10.9-6.293-10.929l.6-.923c.212.137,5.2,3.463,6.774,11.645,2.046,10.654-2.554,24.036-13.673,39.775a41.671,41.671,0,0,0-5.8,11.708c-2.9,9.346-3.312,22.183,11.184,30.264Z" transform="translate(-302.046 -191.27)" fill="#3f3d56"/>
      <path id="Path_934" data-name="Path 934" d="M908.5,284.673l-.536-.962c14.5-8.081,14.083-20.918,11.184-30.264a41.673,41.673,0,0,0-5.8-11.708c-11.119-15.739-15.719-29.122-13.673-39.775,1.572-8.182,6.562-11.507,6.774-11.645l.6.923c-.048.032-4.833,3.245-6.3,10.973-1.351,7.111-.106,19.629,13.5,38.889A42.781,42.781,0,0,1,920.2,253.12C923.223,262.856,923.644,276.232,908.5,284.673Z" transform="translate(-330.554 -144.745)" fill="#3f3d56"/>
      <path id="Path_935" data-name="Path 935" d="M945.279,232.108A16.519,16.519,0,0,1,917.6,214.063l0-.007c4.985-7.641,30.082-15.877,30.082-15.877S950.264,224.468,945.279,232.108Z" transform="translate(-335.001 -146.97)" fill="#6c63ff"/>
      <path id="Path_936" data-name="Path 936" d="M936.83,160.681a16.519,16.519,0,1,1-27.675-18.045l0-.007c4.985-7.641,30.082-15.877,30.082-15.877S941.815,153.04,936.83,160.681Z" transform="translate(-332.61 -126.751)" fill="#6c63ff"/>
      <path id="Path_937" data-name="Path 937" d="M930.334,388.923c-1.057-.248-26-6.046-34.31-2.087a17.07,17.07,0,0,0,7.368,32.482,16.792,16.792,0,0,0,3.689-.407,17.118,17.118,0,0,0,3.623-1.25c8.315-3.965,19.526-26.981,20-27.961l.3-.617Zm-20.1,27.741A15.967,15.967,0,1,1,896.5,387.833c1.938-.925,4.9-1.272,8.281-1.272,9.251,0,21.618,2.616,24.624,3.282-1.878,3.766-11.938,23.374-19.173,26.821Z" transform="translate(-326.897 -199.982)" fill="#3f3d56"/>
      <path id="Path_938" data-name="Path 938" d="M834.116,244.931a17,17,0,0,1-11.493-4.448c-6.806-6.206-10.846-31.489-11.015-32.562l-.106-.679.686.044c1.084.069,26.632,1.765,33.438,7.97h0a17.062,17.062,0,0,1-11.509,29.675Zm-21.306-36.5c.7,4.146,4.634,25.836,10.555,31.235a15.969,15.969,0,0,0,21.518-23.6h0c-5.92-5.4-27.88-7.315-32.074-7.636Z" transform="translate(-305.727 -149.535)" fill="#3f3d56"/>
      <path id="Path_939" data-name="Path 939" d="M797.893,311.9a16.519,16.519,0,1,1-22.26,24.413c-6.741-6.147-10.842-32.241-10.842-32.241S791.151,305.754,797.893,311.9Z" transform="translate(-292.505 -176.945)" fill="#6c63ff"/>
      <path id="Path_940" data-name="Path 940" d="M871.44,312.9a9.443,9.443,0,0,0-9.19-7.439,9.65,9.65,0,0,0-2.015.22c-4.923,1.068-13.672,11.789-14.041,12.241l-.435.534.617.308c.485.242,11.024,5.462,16.541,5.462a6.082,6.082,0,0,0,1.31-.127,9.425,9.425,0,0,0,7.213-11.2Zm-2.214,6.5a8.236,8.236,0,0,1-5.237,3.629c-3.954.859-13.9-3.706-16.5-4.945,1.85-2.2,9.019-10.468,12.979-11.327a8.322,8.322,0,0,1,8.755,12.643Z" transform="translate(-315.424 -177.338)" fill="#3f3d56"/>
      <path id="Path_941" data-name="Path 941" d="M285.6,493.57l28.779-28.779a7.621,7.621,0,0,1,12.71,3.274h0a7.62,7.62,0,0,1-1.933,7.5L306.78,493.942l25.642,20.44-.013.019c.128-.006.255-.019.385-.019a7.8,7.8,0,1,1-7.8,7.84Z" transform="translate(-156.862 -221.806)" fill="#a0616a"/>
      <path id="Path_942" data-name="Path 942" d="M293.254,612.134l8.537-3.187L293.56,574.5l-12.6,4.7Z" transform="translate(-79.53 -162.621)" fill="#a0616a"/>
      <path id="Path_943" data-name="Path 943" d="M0,0H28.638V11.065H10.673A10.673,10.673,0,0,1,0,.392V0Z" transform="translate(241.683 448.109) rotate(159.528)" fill="#2f2e41"/>
      <path id="Path_944" data-name="Path 944" d="M190.984,609.294H200.1l4.335-35.147H190.983Z" transform="translate(-54.06 -162.52)" fill="#a0616a"/>
      <path id="Path_945" data-name="Path 945" d="M0,0H28.638V11.065H10.673A10.673,10.673,0,0,1,0,.392V0Z" transform="translate(163.608 455.235) rotate(179.997)" fill="#2f2e41"/>
      <path id="Path_946" data-name="Path 946" d="M318.9,520.025s22.3-3.716,29.73,5.2l31.588,146.05-17.838,2.23s-5.946-75.812-35.676-95.88c0,0-21.554,66.893-17.838,97.366l-15.608-1.487S288.431,545.3,318.9,520.025Z" transform="translate(-158.953 -237.856)" fill="#2f2e41"/>
      <path id="Path_947" data-name="Path 947" d="M383.465,586.431l2.558-3.357-.42-.32,1.725-2.263a5.068,5.068,0,0,0-.959-7.1h0l-6.2-4.728a5.068,5.068,0,0,0-7.1.959h0l-14.641,19.212a5.068,5.068,0,0,0,.959,7.1h0l6.2,4.728a5.068,5.068,0,0,0,7.1-.959h0l6.841-8.976.42.32,2.558-3.357-.42-.32.959-1.259Z" transform="translate(-177.183 -251.547)" fill="#e6e6e6"/>
      <circle id="Ellipse_27" data-name="Ellipse 27" cx="2.638" cy="2.638" r="2.638" transform="translate(198.649 323.135)" fill="#fff"/>
      <circle id="Ellipse_28" data-name="Ellipse 28" cx="17.609" cy="17.609" r="17.609" transform="translate(147.74 189.032)" fill="#a0616a"/>
      <path id="Path_948" data-name="Path 948" d="M312.551,457.365s16.352-19.325,29.73-3.716h0A53.134,53.134,0,0,1,355.049,489.8l-.5,16.986L323.7,501.96Z" transform="translate(-164.492 -217.56)" fill="#ccc"/>
      <path id="Path_949" data-name="Path 949" d="M342.03,454.315a8,8,0,0,0-7.768,9.424l16.876,93.4-.094.128a7.649,7.649,0,0,0,3.006,11.491h0a7.761,7.761,0,0,0,9.638-2.867,7.613,7.613,0,0,0-1.508-9.934l-.11-.093-12-94.552a8,8,0,0,0-7.936-6.994Z" transform="translate(-170.601 -219.473)" fill="#a0616a"/>
      <path id="Path_950" data-name="Path 950" d="M316.78,408.189l7.565-8.913c1.95-2.3,3.989-4.8,4.265-7.8.3-3.289-1.7-6.485-4.433-8.337a19.254,19.254,0,0,0-9.386-2.8c-6.107-.474-12.533.535-17.554,4.044s-8.3,9.845-7.081,15.847c.964,4.726,4.515,9.253,3.135,13.874-1.51,5.057-7.7,6.608-12.762,8.116-8.489,2.531-16.594,7.514-21.043,15.174s-4.429,18.222,1.5,24.8c3.84,4.261,9.632,6.415,15.358,6.74s11.427-1.024,16.858-2.869c5-1.7,9.95-3.884,13.887-7.405s6.775-8.56,6.652-13.841c-.117-5.033-2.813-9.617-3.92-14.528a23.842,23.842,0,0,1,7.453-22.748" transform="translate(-148.576 -198.501)" fill="#2f2e41"/>
      <path id="Path_951" data-name="Path 951" d="M322.906,378.243l4.766-.935a3.057,3.057,0,0,1,3.588,2.411l6.59,22.113h0l-10.764,2.112h0l-6.59-22.112a3.057,3.057,0,0,1,2.411-3.588Z" transform="translate(-166.725 -197.659)" fill="#6c63ff"/>
      <circle id="Ellipse_29" data-name="Ellipse 29" cx="8.668" cy="8.668" r="8.668" transform="translate(158 199.385)" fill="#fff"/>
      <circle id="Ellipse_30" data-name="Ellipse 30" cx="4.815" cy="4.815" r="4.815" transform="translate(161.852 203.237)" fill="#6c63ff"/>
    </g>
  </g>
</svg>
