<svg xmlns="http://www.w3.org/2000/svg" width="18" height="16.714" viewBox="0 0 18 16.714">
  <path id="Icon_ionic-ios-star" data-name="Icon ionic-ios-star" d="M19.567,9.161h-5.91l-1.8-5.36a.651.651,0,0,0-1.221,0l-1.8,5.36H2.893A.645.645,0,0,0,2.25,9.8a.472.472,0,0,0,.012.108.618.618,0,0,0,.269.454l4.858,3.423-1.864,5.42a.645.645,0,0,0,.221.723.622.622,0,0,0,.362.157.788.788,0,0,0,.4-.145l4.741-3.379,4.741,3.379a.753.753,0,0,0,.4.145.577.577,0,0,0,.358-.157.637.637,0,0,0,.221-.723l-1.864-5.42,4.817-3.455.117-.1a.674.674,0,0,0,.209-.43A.68.68,0,0,0,19.567,9.161Z" transform="translate(-2.25 -3.375)" fill="#e17ef2"/>
</svg>
