<svg xmlns="http://www.w3.org/2000/svg" width="29" height="32" viewBox="0 0 29 32">
  <g id="Icon_feather-share-2" data-name="Icon feather-share-2" transform="translate(1 1)">
    <path id="Path_954" data-name="Path 954" d="M31.5,7.5A4.5,4.5,0,1,1,27,3,4.5,4.5,0,0,1,31.5,7.5Z" transform="translate(-4.5 -3)" fill="none" stroke="#748a96" stroke-linecap="round" stroke-linejoin="round" stroke-width="2"/>
    <path id="Path_955" data-name="Path 955" d="M13.5,18A4.5,4.5,0,1,1,9,13.5,4.5,4.5,0,0,1,13.5,18Z" transform="translate(-4.5 -3)" fill="none" stroke="#748a96" stroke-linecap="round" stroke-linejoin="round" stroke-width="2"/>
    <path id="Path_956" data-name="Path 956" d="M31.5,28.5A4.5,4.5,0,1,1,27,24,4.5,4.5,0,0,1,31.5,28.5Z" transform="translate(-4.5 -3)" fill="none" stroke="#748a96" stroke-linecap="round" stroke-linejoin="round" stroke-width="2"/>
    <path id="Path_957" data-name="Path 957" d="M12.885,20.265l10.245,5.97" transform="translate(-4.5 -3)" fill="none" stroke="#748a96" stroke-linecap="round" stroke-linejoin="round" stroke-width="2"/>
    <path id="Path_958" data-name="Path 958" d="M23.115,9.765l-10.23,5.97" transform="translate(-4.5 -3)" fill="none" stroke="#748a96" stroke-linecap="round" stroke-linejoin="round" stroke-width="2"/>
  </g>
</svg>
